<svg width="231" height="385" viewBox="0 0 231 385" fill="none" xmlns="http://www.w3.org/2000/svg">
<rect x="18" y="150.743" width="194" height="84" rx="42" transform="rotate(-0.810006 18 150.743)" fill="url(#paint0_linear_169_3)"/>
<rect x="17.6597" y="336.022" width="250" height="84" rx="42" transform="rotate(-54.8719 17.6597 336.022)" fill="url(#paint1_linear_169_3)"/>
<path d="M32.1651 223.748C14.9532 210.236 11.6465 185.468 24.7109 167.914L124.382 33.991C138.121 15.5296 164.226 11.7019 182.687 25.4416V25.4416C201.355 39.3347 205.026 65.8245 190.84 84.2708L89.0711 216.606C75.3891 234.398 49.8191 237.606 32.1651 223.748V223.748Z" fill="url(#paint2_linear_169_3)"/>
<defs>
<linearGradient id="paint0_linear_169_3" x1="34.2504" y1="150.743" x2="80.6586" y2="277.035" gradientUnits="userSpaceOnUse">
<stop stop-color="#FF0004"/>
<stop offset="1" stop-color="#FFCCBD"/>
</linearGradient>
<linearGradient id="paint1_linear_169_3" x1="38.6009" y1="336.022" x2="76.4027" y2="468.588" gradientUnits="userSpaceOnUse">
<stop stop-color="#FF35F2"/>
<stop offset="1" stop-color="#55D2D7"/>
</linearGradient>
<linearGradient id="paint2_linear_169_3" x1="8.53508" y1="173.396" x2="132.23" y2="234.047" gradientUnits="userSpaceOnUse">
<stop offset="0.0791515" stop-color="#E748FF"/>
<stop offset="1" stop-color="#56FFCF"/>
</linearGradient>
</defs>
</svg>
