<svg width="232" height="384" viewBox="0 0 232 384" fill="none" xmlns="http://www.w3.org/2000/svg">
<rect x="18" y="150.743" width="194" height="84" rx="42" transform="rotate(-0.810006 18 150.743)" fill="url(#paint0_linear_169_3)"/>
<rect x="16.4839" y="334.396" width="250" height="84" rx="42" transform="rotate(-54 16.4839 334.396)" fill="url(#paint1_linear_169_3)"/>
<path d="M33.294 224.616C15.928 211.303 12.3371 186.574 25.199 168.871L123.325 33.8127C136.852 15.1946 162.91 11.0673 181.528 24.5941C200.354 38.2719 204.329 64.7178 190.357 83.3258L90.1142 216.821C76.6374 234.769 51.106 238.271 33.294 224.616Z" fill="url(#paint2_linear_169_3)"/>
<defs>
<linearGradient id="paint0_linear_169_3" x1="34.2504" y1="150.743" x2="80.6586" y2="277.035" gradientUnits="userSpaceOnUse">
<stop stop-color="#FF0004"/>
<stop offset="1" stop-color="#FFCCBD"/>
</linearGradient>
<linearGradient id="paint1_linear_169_3" x1="37.4251" y1="334.396" x2="75.227" y2="466.962" gradientUnits="userSpaceOnUse">
<stop stop-color="#FF35F2"/>
<stop offset="1" stop-color="#55D2D7"/>
</linearGradient>
<linearGradient id="paint2_linear_169_3" x1="9.08722" y1="174.539" x2="133.471" y2="233.766" gradientUnits="userSpaceOnUse">
<stop offset="0.0791515" stop-color="#E748FF"/>
<stop offset="1" stop-color="#56FFCF"/>
</linearGradient>
</defs>
</svg>
